Coordinates
version=1
nRows=41
nColumns=38
inDegrees=no

Units are S.I. units (second, meters, Newtons, ...)
If the header above contains a line with 'inDegrees', this indicates whether rotational values are in degrees (yes) or radians (no).

endheader
time	pelvis_tilt	pelvis_list	pelvis_rotation	pelvis_tx	pelvis_ty	pelvis_tz	hip_flexion_r	hip_adduction_r	hip_rotation_r	knee_angle_r	ankle_angle_r	subtalar_angle_r	mtp_angle_r	hip_flexion_l	hip_adduction_l	hip_rotation_l	knee_angle_l	ankle_angle_l	subtalar_angle_l	mtp_angle_l	lumbar_extension	lumbar_bending	lumbar_rotation	arm_flex_r	arm_add_r	arm_rot_r	elbow_flex_r	pro_sup_r	wrist_flex_r	wrist_dev_r	arm_flex_l	arm_add_l	arm_rot_l	elbow_flex_l	pro_sup_l	wrist_flex_l	wrist_dev_l
90	-2.51813	1.29834	0.898694	0.800912	1.89922	0.998388	0.530017	0.00750333	-0.198587	0.804773	-0.11134	0	0	0.0812772	-0.229757	-0.532363	0.171078	-0.102766	0	0	0.130114	0.200035	0.00929311	-0.048711	-0.28859	0.170868	0.492495	1.54648	0	0	-0.16336	-0.0988216	-0.0918384	0.528457	1.5708	0	0
90.01	-2.49889	1.29599	0.883347	0.801791	1.89687	0.998595	0.541307	0.010914	-0.205326	0.804917	-0.114707	0	0	0.0768173	-0.234015	-0.529617	0.167556	-0.103286	0	0	0.125644	0.20492	0.00526635	-0.0499017	-0.290932	0.17146	0.498386	1.53884	0	0	-0.160797	-0.0989641	-0.0943346	0.522366	1.5708	0	0
90.02	-2.47978	1.29274	0.868329	0.802614	1.89441	0.998767	0.55188	0.0156131	-0.212015	0.799011	-0.11854	0	0	0.0729029	-0.238679	-0.526685	0.163628	-0.104152	0	0	0.121641	0.210589	0.000820161	-0.0510677	-0.293915	0.173747	0.505121	1.52924	0	0	-0.158136	-0.0987274	-0.097939	0.515697	1.5708	0	0
90.03	-2.46025	1.28925	0.852297	0.803309	1.89189	0.998922	0.56137	0.0216331	-0.217742	0.787742	-0.121117	0	0	0.0688104	-0.243915	-0.525964	0.160091	-0.104992	0	0	0.11729	0.216592	-0.00262684	-0.0520792	-0.29706	0.176148	0.512115	1.52024	0	0	-0.15614	-0.0985907	-0.102454	0.510702	1.5708	0	0
90.04	-2.42254	1.28833	0.818473	0.803951	1.88946	0.999442	0.563626	0.0305463	-0.223881	0.770567	-0.125156	0	0	0.0583879	-0.251184	-0.52395	0.155277	-0.108281	0	0	0.104483	0.224856	-0.00665545	-0.0485561	-0.305051	0.198948	0.52138	1.47501	0	0	-0.15466	-0.096431	-0.117482	0.510593	1.5708	0	0
90.05	-2.33433	1.21334	0.680196	0.795449	1.88236	0.991833	0.601854	0.144947	-0.19793	0.741727	-0.123953	0	0	0.00657442	-0.298645	-0.366362	0.00285048	-0.12054	0	0	0.145885	0.31041	0.0339791	-0.100832	-0.332095	0.194659	0.585972	1.47304	0	0	-0.203916	-0.083268	-0.153593	0.562232	1.5708	0	0
90.06	-2.32136	1.20735	0.667359	0.795559	1.87928	0.991679	0.609472	0.155208	-0.200531	0.716726	-0.124276	0	0	0.000963144	-0.305236	-0.366854	0	-0.122528	0	0	0.142569	0.318307	0.034788	-0.102293	-0.335968	0.195594	0.59302	1.47282	0	0	-0.203086	-0.0828959	-0.157097	0.558815	1.5708	0	0
90.07	-2.307	1.20295	0.6548	0.7962	1.87626	0.991615	0.614717	0.162966	-0.204459	0.688396	-0.125698	0	0	-0.00341854	-0.311183	-0.370798	0	-0.122821	0	0	0.137016	0.325794	0.0349861	-0.102864	-0.341223	0.196512	0.600835	1.47358	0	0	-0.201132	-0.0815729	-0.160609	0.555652	1.5708	0	0
90.08	-2.29686	1.20013	0.648288	0.796952	1.87323	0.991528	0.619525	0.167387	-0.209223	0.657684	-0.127946	0	0	-0.00573791	-0.315045	-0.373611	0	-0.121795	0	0	0.131622	0.330426	0.0337558	-0.101678	-0.345185	0.196403	0.606069	1.47586	0	0	-0.198591	-0.0809551	-0.163762	0.552369	1.5708	0	0
90.09	-2.3316	1.26706	0.732542	0.805685	1.8737	0.999018	0.590785	0.0747199	-0.240061	0.63229	-0.135209	0	0	0.0326816	-0.280621	-0.52657	0.141105	-0.104488	0	0	0.0803248	0.261997	-0.00259038	-0.0523531	-0.325714	0.197636	0.555777	1.48954	0	0	-0.146179	-0.0927953	-0.135598	0.492927	1.5708	0	0
90.1	-2.27168	1.19436	0.636838	0.798453	1.86713	0.991091	0.625789	0.17465	-0.223182	0.588748	-0.138458	0	0	0.00209563	-0.330733	-0.398873	0.0333418	-0.101914	0	0	0.118921	0.339965	0.0254567	-0.0961446	-0.350403	0.188205	0.614156	1.50372	0	0	-0.192605	-0.0814228	-0.168076	0.547476	1.5708	0	0
90.11	-2.27928	1.26554	0.689121	0.806473	1.86696	0.999119	0.586027	0.0880556	-0.250658	0.558905	-0.144908	0	0	0.0169546	-0.29232	-0.524621	0.142918	-0.098766	0	0	0.056567	0.274224	-0.00463542	-0.0452489	-0.332757	0.192237	0.565351	1.50766	0	0	-0.140835	-0.0936875	-0.139477	0.492755	1.5708	0	0
90.12	-2.21937	1.19234	0.594871	0.799082	1.86019	0.991097	0.61659	0.189142	-0.231893	0.510975	-0.156195	0	0	-0.020657	-0.342425	-0.388058	0.027468	-0.10061	0	0	0.0908505	0.352755	0.0256176	-0.0888163	-0.357299	0.178664	0.623947	1.52814	0	0	-0.187213	-0.0830102	-0.169713	0.550929	1.5708	0	0
90.13	-2.21578	1.18722	0.593411	0.798817	1.85613	0.990227	0.620914	0.196344	-0.232647	0.471853	-0.158142	0	0	-0.0195524	-0.349452	-0.395628	0.0357117	-0.0944006	0	0	0.0908968	0.357707	0.0267362	-0.0868154	-0.361653	0.181341	0.624405	1.51947	0	0	-0.187927	-0.0843537	-0.168749	0.551175	1.5708	0	0
90.14	-2.19781	1.18721	0.580313	0.798967	1.85235	0.989775	0.617364	0.201119	-0.234445	0.432532	-0.167582	0	0	-0.0288729	-0.352899	-0.390981	0.0344534	-0.0930721	0	0	0.0791193	0.361335	0.027817	-0.0820486	-0.365366	0.177665	0.627267	1.52511	0	0	-0.186484	-0.0861466	-0.166804	0.555271	1.5708	0	0
90.15	-2.18914	1.18555	0.576545	0.799027	1.8482	0.988964	0.617326	0.204975	-0.236012	0.393215	-0.179061	0	0	-0.0334814	-0.356248	-0.387074	0.0351678	-0.0904253	0	0	0.073627	0.364599	0.0279772	-0.0786601	-0.368673	0.171962	0.628711	1.53009	0	0	-0.186198	-0.0879497	-0.163999	0.558126	1.5708	0	0
90.16	-2.19266	1.1804	0.583841	0.798741	1.84364	0.987608	0.622979	0.209548	-0.236008	0.35408	-0.191673	0	0	-0.0321959	-0.360583	-0.383869	0.0368475	-0.0869124	0	0	0.0772713	0.368499	0.0280701	-0.0778248	-0.371593	0.164147	0.628817	1.53171	0	0	-0.18764	-0.0900309	-0.159369	0.559288	1.5708	0	0
90.17	-2.1935	1.17553	0.589804	0.798476	1.83908	0.986138	0.627658	0.213751	-0.235384	0.315342	-0.204061	0	0	-0.0304995	-0.365968	-0.381541	0.0410831	-0.0821505	0	0	0.0791184	0.372631	0.0271917	-0.076352	-0.374741	0.154749	0.630696	1.52954	0	0	-0.189586	-0.0926691	-0.153736	0.56321	1.5708	0	0
90.18	-2.19608	1.17086	0.597051	0.798117	1.83436	0.984525	0.632462	0.217696	-0.231303	0.277041	-0.215625	0	0	-0.0284481	-0.370994	-0.380687	0.0460226	-0.0765145	0	0	0.0815762	0.376264	0.0267332	-0.0746313	-0.378051	0.144929	0.632838	1.52408	0	0	-0.19213	-0.0955921	-0.147593	0.568138	1.5708	0	0
90.19	-2.20238	1.16449	0.606407	0.797366	1.82946	0.982589	0.639242	0.223035	-0.222595	0.23924	-0.227908	0	0	-0.0245743	-0.37723	-0.382294	0.051988	-0.0694838	0	0	0.0866391	0.380538	0.0275802	-0.0737939	-0.381321	0.133902	0.636334	1.51381	0	0	-0.196139	-0.098969	-0.140865	0.574714	1.5708	0	0
90.2	-2.23636	1.14605	0.633085	0.795058	1.82373	0.978954	0.661928	0.236824	-0.197975	0.201314	-0.244603	0	0	-0.00739736	-0.388907	-0.396536	0.0614559	-0.0576901	0	0	0.113581	0.389246	0.0339251	-0.0813967	-0.386699	0.125476	0.64309	1.48774	0	0	-0.208956	-0.102314	-0.133944	0.583941	1.5708	0	0
90.21	-2.2386	1.14433	0.638027	0.794596	1.81831	0.977322	0.663445	0.238233	-0.185253	0.166425	-0.248339	0	0	-0.0116559	-0.389622	-0.395166	0.0596052	-0.0554931	0	0	0.113617	0.391004	0.0364	-0.0792352	-0.389655	0.110021	0.647489	1.48508	0	0	-0.211787	-0.104615	-0.129603	0.589571	1.5708	0	0
90.22	-2.22274	1.15561	0.631274	0.795552	1.8131	0.977128	0.649932	0.229744	-0.175572	0.133042	-0.254979	0	0	-0.026337	-0.383102	-0.396842	0.0607719	-0.0533826	0	0	0.09455	0.386375	0.0373563	-0.0695327	-0.393041	0.0961672	0.650892	1.47366	0	0	-0.206241	-0.107293	-0.121547	0.590628	1.5708	0	0
90.23	-2.22671	1.161	0.637461	0.795639	1.80705	0.976084	0.644342	0.224678	-0.150591	0.0979276	-0.26556	0	0	-0.0402668	-0.373351	-0.387633	0.04561	-0.0584352	0	0	0.0908606	0.382685	0.0429016	-0.0666512	-0.394843	0.0750746	0.653748	1.47672	0	0	-0.204211	-0.110977	-0.107746	0.588268	1.5708	0	0
90.24	-2.26163	1.15478	0.664976	0.794756	1.79986	0.973279	0.655341	0.224646	-0.115412	0.065144	-0.270265	0	0	-0.0397229	-0.366638	-0.392274	0.0345255	-0.058863	0	0	0.110364	0.382815	0.0522604	-0.07263	-0.398823	0.0551506	0.659401	1.48136	0	0	-0.211117	-0.113363	-0.094194	0.5865	1.5708	0	0
90.25	-2.22942	1.18038	0.668862	0.799208	1.79605	0.974259	0.628344	0.190794	-0.121435	0.0352275	-0.272973	0	0	-0.047028	-0.354219	-0.377666	0.0539476	-0.0548107	0	0	0.0773764	0.367923	0.0323141	-0.0507831	-0.400634	0.038144	0.658585	1.48499	0	0	-0.148235	-0.276116	0.50074	0.610006	1.19354	0	0
90.26	-2.2791	1.15215	0.68869	0.793684	1.7871	0.96928	0.652047	0.218161	-0.0411223	0	-0.2832	0	0	-0.0455763	-0.363781	-0.39138	0.0309967	-0.0550716	0	0	0.117211	0.382826	0.0562044	-0.0667327	-0.403276	0.0166666	0.671828	1.50299	0	0	-0.218313	-0.116421	-0.0911053	0.595722	1.5708	0	0
90.27	-2.27993	1.26967	0.796974	0.79946	1.79098	0.980437	0.57853	0.0789893	-0.0933445	0	-0.274259	0	0	-0.049845	-0.278404	-0.293058	0.0879322	-0.0799664	0	0	0.00192069	0.263163	-0.0168836	0.025277	-0.350519	-0.0192078	0.609202	1.53795	0	0	-0.0906083	-0.31823	0.553992	0.596226	1.15254	0	0
90.28	-2.29622	1.26374	0.823465	0.79954	1.7842	0.978199	0.586626	0.0727151	-0.100767	0	-0.274145	0	0	-0.0425592	-0.281128	-0.288359	0.0941159	-0.0759382	0	0	0.0113245	0.267514	-0.0237443	0.0288526	-0.354225	-0.0383	0.618344	1.55593	0	0	-0.141608	-0.160083	-0.0461511	0.562454	1.5708	0	0
90.29	-2.29333	1.26595	0.834966	0.799675	1.77794	0.976566	0.584803	0.0635715	-0.110399	0	-0.271196	0	0	-0.043228	-0.282835	-0.279878	0.102112	-0.0717255	0	0	0.00794743	0.267286	-0.0305702	0.0365627	-0.356911	-0.0533084	0.626289	1.563	0	0	-0.0914248	-0.316279	0.547713	0.594817	1.16223	0	0
90.3	-2.30002	1.26171	0.847966	0.798706	1.77078	0.974435	0.589469	0.0615909	-0.109785	0	-0.270274	0	0	-0.0424146	-0.286753	-0.27676	0.105576	-0.0706339	0	0	0.0131067	0.270739	-0.0323607	0.042913	-0.361793	-0.0598709	0.633748	1.56289	0	0	-0.0932277	-0.316156	0.547985	0.593661	1.16016	0	0
90.31	-2.35299	1.22485	0.858973	0.79181	1.75925	0.968329	0.629008	0.098638	-0.0601878	0	-0.268417	0	0	-0.0395014	-0.300008	-0.302591	0.0842911	-0.06769	0	0	0.0649957	0.287137	0.00477667	0.0260552	-0.367186	-0.0710038	0.644809	1.56529	0	0	-0.121055	-0.314343	0.541852	0.595538	1.15951	0	0
90.32	-2.52626	1.13126	0.914915	0.77806	1.74318	0.954424	0.737291	0.174052	0.101488	0	-0.274193	0	0	-0.0176381	-0.29504	-0.359268	0	-0.0809631	0	0	0.217384	0.317228	0.0898473	-0.0327026	-0.377614	-0.0703202	0.66419	1.56439	0	0	-0.255525	-0.159229	-0.0602158	0.599043	1.5708	0	0
90.33	-2.57029	1.10423	0.914495	0.771766	1.73178	0.949552	0.765068	0.204769	0.158438	0	-0.275005	0	0	-0.012313	-0.298821	-0.411292	0	-0.0780571	0	0	0.2606	0.332233	0.126018	-0.0469412	-0.383007	-0.0697256	0.675676	1.54325	0	0	-0.288987	-0.16205	-0.0629438	0.613777	1.56872	0	0
90.34	-2.56564	1.1014	0.915493	0.770673	1.72338	0.94792	0.765222	0.206098	0.160643	0	-0.274735	0	0	-0.0192265	-0.301714	-0.411783	0	-0.0776741	0	0	0.26205	0.337575	0.125027	-0.037263	-0.387343	-0.074257	0.681324	1.54674	0	0	-0.292686	-0.161884	-0.0649052	0.614686	1.56986	0	0
90.35	-2.53605	1.1062	0.897527	0.771086	1.7147	0.946918	0.751395	0.207689	0.151152	0	-0.277366	0	0	-0.0365375	-0.308945	-0.408204	0	-0.0739011	0	0	0.247251	0.358549	0.122139	-0.0608237	-0.485281	0.0951621	0.775505	1.31395	0	0	-0.280255	-0.161246	-0.0255288	0.594351	1.5545	0	0
90.36	-2.50776	1.1245	0.911947	0.774168	1.70735	0.948464	0.729942	0.181187	0.107799	0	-0.28545	0	0	-0.0380249	-0.310734	-0.383946	0.0236483	-0.0654804	0	0	0.22311	0.341491	0.0943326	-0.000621439	-0.395517	-0.0966469	0.690593	1.5708	0	0	-0.267677	-0.15968	-0.0384182	0.592577	1.5708	0	0
90.37	-2.2575	1.1189	0.794421	0.790334	1.70624	0.948385	0.675893	0.175214	-0.098574	0.00939695	-0.304429	0	0	-0.0215277	-0.416771	-0.317722	0.122357	-0.0167473	0	0	0.156717	0.431254	-0.0155133	0.0314944	-0.444433	-0.0934997	0.74925	1.56194	0	0	-0.238356	-0.125688	-0.0511206	0.612923	1.5708	0	0
90.38	-2.3066	1.22657	0.9231	0.794252	1.70342	0.960295	0.616602	0.0501098	-0.193854	0.0514294	-0.309163	0	0	-0.0446226	-0.319514	-0.199186	0.134713	-0.0607474	0	0	0.0665936	0.322198	-0.0626951	0.108259	-0.399596	-0.11423	0.688084	1.5708	0	0	-0.134215	-0.241699	0.343933	0.540663	1.31374	0	0
90.39	-2.2536	1.24893	0.906559	0.796592	1.69675	0.962928	0.594027	0.0274027	-0.281212	0.0863566	-0.321253	0	0	-0.0570004	-0.321902	-0.163612	0.157555	-0.0641012	0	0	0.0319173	0.3246	-0.0854099	0.139009	-0.400363	-0.117017	0.686764	1.5708	0	0	-0.147956	-0.161541	0.0151017	0.540067	1.53011	0	0
90.4	-2.24932	1.24045	0.905047	0.794989	1.68701	0.962413	0.606021	0.0308746	-0.321206	0.118124	-0.330333	0	0	-0.0509372	-0.333243	-0.163516	0.176994	-0.0655107	0	0	0.0414788	0.336392	-0.0850737	0.155805	-0.403129	-0.113382	0.683509	1.5708	0	0	-0.124952	-0.226238	0.311769	0.524845	1.33456	0	0
